<svg width="26" height="23" viewBox="0 0 26 23" fill="none" xmlns="http://www.w3.org/2000/svg">
<path d="M21.7004 13.0433C21.638 13.0118 21.5755 12.9961 21.5124 12.9961C21.3767 12.9961 21.2572 13.0481 21.153 13.1525L20.1524 14.153C20.0588 14.2469 20.0118 14.3615 20.0118 14.4971V18.4679C20.0118 19.1559 19.7674 19.7446 19.2772 20.2347C18.7874 20.7245 18.1984 20.9694 17.5105 20.9694H4.50269C3.81468 20.9694 3.22574 20.7245 2.73591 20.2347C2.24598 19.7446 2.00115 19.156 2.00115 18.4679V5.46041C2.00115 4.77252 2.24598 4.18363 2.73591 3.69364C3.22574 3.20376 3.81468 2.95888 4.50269 2.95888H17.5106C17.7399 2.95888 17.9744 2.99014 18.2141 3.05273C18.2767 3.07343 18.3235 3.084 18.3544 3.084C18.4901 3.084 18.61 3.03203 18.7142 2.92783L19.4803 2.16174C19.6052 2.03683 19.6523 1.88558 19.6208 1.70855C19.5895 1.54175 19.4956 1.42182 19.3393 1.34894C18.7768 1.08872 18.1668 0.958008 17.5101 0.958008H4.50269C3.26238 0.958008 2.20179 1.39839 1.32103 2.27914C0.440379 3.16001 0 4.22043 0 5.4608V18.4686C0 19.7087 0.440379 20.7693 1.32108 21.65C2.20184 22.531 3.26243 22.9714 4.50274 22.9714H17.5105C18.7506 22.9714 19.8113 22.531 20.6921 21.65C21.5729 20.7693 22.0136 19.7088 22.0136 18.4686V13.4966C22.0135 13.2779 21.9088 13.1268 21.7004 13.0433Z" fill="#EE7342"/>
<path d="M25.6249 4.06919L23.9049 2.34923C23.6548 2.09915 23.3576 1.97408 23.0135 1.97408C22.6699 1.97408 22.3724 2.09915 22.1225 2.34923L12.0069 12.4647L7.89534 8.35288C7.64514 8.10263 7.34801 7.97772 7.00418 7.97772C6.66028 7.97772 6.36327 8.10263 6.11301 8.35288L4.39328 10.0726C4.14313 10.3228 4.01795 10.6199 4.01795 10.9639C4.01795 11.3078 4.14313 11.6048 4.39328 11.8551L11.116 18.5778C11.3662 18.8281 11.6633 18.953 12.0072 18.953C12.351 18.953 12.6481 18.8282 12.8983 18.5778L25.6247 5.85145C25.8747 5.60137 26.0001 5.30418 26.0001 4.96029C26.0001 4.6164 25.875 4.31927 25.6249 4.06919Z" fill="#EE7342"/>
</svg>
